<svg id="Artwork" xmlns="http://www.w3.org/2000/svg" viewBox="0 0 990.66 91.02"><defs><style>.cls-1{fill:#67788a;}.cls-2{fill:#1c2b33;}</style></defs><path class="cls-1" d="M153.52,89.1v11.53a1.19,1.19,0,0,1-1.25,1.26H102.75v23.57h40.87a1.18,1.18,0,0,1,1.25,1.25v11.53a1.18,1.18,0,0,1-1.25,1.26H102.75v34.85a1.2,1.2,0,0,1-1.26,1.26H89.08a1.19,1.19,0,0,1-1.25-1.26V89.1a1.18,1.18,0,0,1,1.25-1.26h63.19A1.18,1.18,0,0,1,153.52,89.1Z" transform="translate(-87.83 -86.21)"/><path class="cls-1" d="M254.57,175.61H240.91a1.36,1.36,0,0,1-1.44-1.13c-1.82-7.21-4-14.8-6.52-22.44H191c-2.51,7.64-4.7,15.23-6.46,22.44a1.37,1.37,0,0,1-1.44,1.13H169.94c-.87,0-1.37-.51-1.12-1.38,7.89-28,19.93-58.8,32.09-84.76a2.41,2.41,0,0,1,2.45-1.63h17.8a2.41,2.41,0,0,1,2.45,1.63,574.53,574.53,0,0,1,32.09,84.76C256,175.1,255.45,175.61,254.57,175.61Zm-26.26-37.12c-4.58-12.66-9.66-25.32-14.86-36.86H210.5c-5.2,11.54-10.34,24.2-14.92,36.86Z" transform="translate(-87.83 -86.21)"/><path class="cls-1" d="M277,132.48c0-27.21,17.93-46.27,43.51-46.27h1.88c16.05,0,28.46,8.15,35,19.94a1.1,1.1,0,0,1-.44,1.75l-11,5.46a1.53,1.53,0,0,1-2.19-.57c-4.64-8-11.6-12.28-21.88-12.28H320c-16.11,0-27.21,12.78-27.21,31.34s10.91,31.09,27.21,31.09h1.88c10.53,0,16.67-3.57,21.37-9a1.59,1.59,0,0,1,2.07-.44L356.69,159a1.05,1.05,0,0,1,.63.88,1.66,1.66,0,0,1-.38.94c-7,10.16-19.5,16.43-34.79,16.43h-1.88C294.25,177.24,277,159.37,277,132.48Z" transform="translate(-87.83 -86.21)"/><path class="cls-1" d="M457.3,162.82v11.53a1.19,1.19,0,0,1-1.25,1.26H390.22a1.19,1.19,0,0,1-1.25-1.26V89.1a1.18,1.18,0,0,1,1.25-1.26h64.7a1.18,1.18,0,0,1,1.25,1.26v11.53a1.19,1.19,0,0,1-1.25,1.26h-51V124.7h41.5a1.19,1.19,0,0,1,1.25,1.26v11.41a1.18,1.18,0,0,1-1.25,1.25h-41.5v22.94h52.16A1.19,1.19,0,0,1,457.3,162.82Z" transform="translate(-87.83 -86.21)"/><path class="cls-1" d="M570.64,151.53c0,15.36-11.79,24.08-32.6,24.08H494.91a1.19,1.19,0,0,1-1.25-1.26V89.1a1.18,1.18,0,0,1,1.25-1.26h39.31c20.24,0,31.28,8,31.28,22.7,0,9.65-4.89,16-14.8,18.93C564.62,132.41,570.64,140.75,570.64,151.53Zm-36.74-50H508.58v23.57H533.9c11.35,0,16.55-3.7,16.55-11.79S545.25,101.51,533.9,101.51Zm21.44,48.71c0-8.15-5.39-11.85-17.24-11.85H508.58v23.57H538.1C550.14,161.94,555.34,158.43,555.34,150.22Z" transform="translate(-87.83 -86.21)"/><path class="cls-1" d="M596.9,131.72c0-26.45,17.55-45.51,45.14-45.51h1.88c27.58,0,45.13,19.06,45.13,45.51s-17.55,45.52-45.13,45.52H642C614.45,177.24,596.9,158.18,596.9,131.72Zm47,31.22c18,0,29.33-12.35,29.33-31.22s-11.34-31.21-29.33-31.21H642c-18,0-29.34,12.35-29.34,31.21S624,162.94,642,162.94Z" transform="translate(-87.83 -86.21)"/><path class="cls-1" d="M714.5,131.72c0-26.45,17.55-45.51,45.14-45.51h1.88c27.58,0,45.13,19.06,45.13,45.51s-17.55,45.52-45.13,45.52h-1.88C732.05,177.24,714.5,158.18,714.5,131.72Zm47,31.22c18,0,29.33-12.35,29.33-31.22s-11.34-31.21-29.33-31.21h-1.88c-18,0-29.34,12.35-29.34,31.21s11.34,31.22,29.34,31.22Z" transform="translate(-87.83 -86.21)"/><path class="cls-1" d="M914.79,175.61H898.61a2.37,2.37,0,0,1-2.19-1.07,343.32,343.32,0,0,0-36.17-36.42H853v36.23a1.19,1.19,0,0,1-1.25,1.26H839.31a1.19,1.19,0,0,1-1.25-1.26V89.1a1.18,1.18,0,0,1,1.25-1.26h12.41A1.18,1.18,0,0,1,853,89.1v34.6h7.4a267.94,267.94,0,0,0,32.72-34.92,2,2,0,0,1,1.89-.94h15.29c.75,0,1.13.38,1.13.88a1.58,1.58,0,0,1-.44.94,312.53,312.53,0,0,1-39.18,40.75A376.58,376.58,0,0,1,915.47,174C916.16,174.85,915.79,175.61,914.79,175.61Z" transform="translate(-87.83 -86.21)"/><path class="cls-2" d="M967.6,175.47q4.2-14.16,9.62-29.42t11.52-30.16Q994.84,101,1001,87.76h12.78q6.21,13.21,12.28,28.13t11.53,30.16q5.45,15.27,9.59,29.42h-11.34q-1.63-6-3.61-12.37t-4.16-12.94H986.33q-2.19,6.57-4.17,12.94t-3.6,12.37Zm22.11-35.09h35q-4.07-11.4-8.55-22.61t-8.93-21.18q-4.38,10-8.89,21.18T989.71,140.38Z" transform="translate(-87.83 -86.21)"/><path class="cls-2" d="M1068,175.47V87.76h10.46v87.71Z" transform="translate(-87.83 -86.21)"/></svg>